<?xml version="1.0" standalone="no"?>
<!DOCTYPE svg PUBLIC "-//W3C//DTD SVG 20010904//EN"
 "http://www.w3.org/TR/2001/REC-SVG-20010904/DTD/svg10.dtd">
<svg version="1.0" xmlns="http://www.w3.org/2000/svg"
 width="768.000000pt" height="960.000000pt" viewBox="0 0 768.000000 960.000000"
 preserveAspectRatio="xMidYMid meet">

<g transform="translate(0.000000,960.000000) scale(0.100000,-0.100000)"
fill="#000000" stroke="none">
<path d="M0 6810 c0 -2433 2 -2790 15 -2790 8 0 22 16 31 36 10 21 22 33 30
30 7 -3 16 4 19 15 6 19 43 59 54 59 3 0 17 -18 30 -39 29 -47 60 -65 79 -45
7 8 21 14 32 14 10 0 22 4 25 10 4 6 13 5 24 -2 10 -6 26 -8 35 -5 9 4 19 8
23 9 30 12 56 52 57 88 2 42 12 61 24 45 7 -10 43 -29 76 -39 30 -10 86 15 86
39 0 11 8 29 16 40 l15 20 14 -20 c8 -11 18 -24 22 -30 7 -9 39 -67 78 -141
14 -28 15 -28 15 -5 0 13 -11 36 -25 53 -14 16 -25 37 -25 45 0 21 -48 119
-66 134 -16 13 -19 55 -5 64 6 3 17 -10 26 -29 9 -19 23 -41 32 -47 12 -11 13
-8 7 17 -4 16 -10 31 -14 34 -4 3 -7 16 -6 30 1 19 11 28 51 45 27 11 60 30
73 42 12 11 40 29 60 39 36 18 41 19 72 23 12 1 13 3 1 10 -9 6 -10 11 -2 15
5 4 19 1 30 -6 26 -16 36 -6 19 21 -8 14 -19 19 -31 15 -16 -5 -18 -2 -12 18
9 30 85 100 103 93 7 -2 11 -1 8 4 -6 10 78 88 111 104 13 5 23 14 23 18 0 5
7 6 15 3 8 -4 15 -1 15 5 0 6 15 11 34 11 40 0 215 -87 263 -131 18 -16 56
-43 85 -60 55 -33 63 -30 75 24 3 15 10 27 15 27 5 0 18 9 30 20 22 20 38 18
38 -6 0 -17 26 -19 33 -1 3 6 6 2 6 -10 1 -23 25 -32 36 -13 3 6 15 10 26 10
12 0 19 7 19 19 0 11 9 23 20 26 11 4 27 18 34 33 17 32 69 82 86 82 6 0 9 4
5 9 -3 5 -1 12 5 16 5 3 10 -1 10 -9 0 -31 20 -15 22 17 1 37 2 39 12 90 4 20
11 37 16 37 6 0 10 7 10 15 0 9 13 24 30 33 16 9 30 20 30 25 0 15 50 6 59
-12 6 -10 8 -21 5 -23 -5 -6 71 -58 86 -58 5 0 10 8 10 19 0 40 22 81 43 82
12 0 16 3 10 6 -7 2 -13 13 -13 22 0 27 62 20 93 -10 42 -41 93 -80 126 -96 7
-3 25 -17 39 -29 14 -13 33 -24 43 -24 11 0 19 -6 20 -12 0 -22 58 -60 92 -62
29 -1 32 2 32 29 0 22 -6 31 -25 36 -14 4 -19 7 -12 8 18 1 15 28 -6 43 -20
15 -82 92 -82 103 0 3 -13 20 -29 36 -16 16 -37 46 -46 67 -15 33 -24 39 -76
55 -45 13 -62 23 -69 41 -5 13 -12 25 -17 27 -5 2 -25 29 -46 59 -20 30 -56
83 -80 116 -23 34 -51 77 -62 95 -11 19 -32 54 -47 79 -60 101 -99 182 -114
242 -23 90 -37 255 -25 298 6 19 13 51 16 70 7 49 37 72 81 64 29 -5 34 -10
34 -35 0 -16 5 -29 10 -29 6 0 10 16 10 36 0 26 5 37 18 40 15 4 17 19 18 120
1 85 4 118 14 124 11 7 11 26 1 105 -9 77 -9 105 1 131 10 27 10 41 0 66 -8
21 -8 36 -2 42 6 6 10 38 10 73 0 35 4 63 10 63 6 0 10 18 10 40 0 25 -5 40
-12 40 -10 0 -10 2 0 8 7 5 17 35 22 68 5 32 18 70 28 84 10 14 22 37 26 53 4
18 13 27 26 27 10 0 22 9 25 20 5 15 15 20 39 20 18 0 41 9 54 20 12 11 25 20
30 20 4 0 26 8 48 19 34 16 168 48 185 43 10 -2 193 18 212 24 9 3 17 1 17 -5
0 -6 -7 -11 -16 -11 -31 0 -3 -18 38 -24 23 -4 63 -18 90 -31 26 -13 48 -21
48 -17 0 4 9 -4 19 -18 11 -13 30 -25 43 -25 13 -1 39 -9 57 -18 46 -23 71
-22 71 3 0 23 -38 87 -66 111 -26 22 -118 49 -166 49 -31 0 -41 4 -45 19 -4
14 -18 20 -63 24 -33 4 -67 4 -77 1 -15 -5 -16 -4 -3 5 11 8 -2 11 -53 11 -37
0 -76 5 -86 12 -15 9 -29 8 -68 -4 -45 -15 -118 -14 -109 1 3 4 1 13 -5 21 -7
12 -9 10 -9 -7 0 -13 -4 -23 -10 -23 -5 0 -10 16 -10 35 0 27 7 42 31 63 21
19 28 32 24 45 -4 9 -11 17 -15 17 -5 0 1 18 13 40 12 22 27 40 34 40 7 0 20
26 30 58 9 31 23 61 30 65 7 4 13 15 13 22 0 8 5 15 10 15 6 0 10 18 10 40 0
29 4 40 15 40 11 0 15 11 15 39 0 36 3 40 28 44 19 3 14 4 -15 6 -43 1 -43 1
-43 -34 0 -42 -8 -44 -40 -10 -23 25 -23 25 -4 40 14 11 15 14 4 15 -9 0 -2
11 18 30 24 21 43 30 68 30 l34 0 0 80 c0 64 -3 80 -15 80 -24 0 -17 19 21 56
29 29 33 38 24 50 -13 15 -62 18 -95 5 -19 -8 -19 -8 2 -15 l22 -7 -22 -44
c-12 -25 -28 -45 -35 -45 -8 0 -21 -18 -29 -40 -9 -22 -23 -40 -30 -40 -12 0
-13 10 -8 53 8 57 16 67 58 67 17 0 27 5 27 15 0 8 -4 15 -10 15 -14 0 -12 46
3 57 6 6 30 14 52 18 33 6 37 9 20 15 -17 7 -17 9 -2 9 9 1 17 8 17 17 0 14 9
16 50 12 28 -3 50 -2 50 1 0 3 -11 19 -25 35 -25 29 -26 30 -54 13 -40 -24
-54 -22 -46 6 10 32 43 64 70 70 14 2 22 1 20 -3 -2 -4 -1 -20 4 -36 l8 -29 7
33 c9 37 28 42 44 10 11 -23 11 -23 11 -2 1 12 -7 25 -16 28 -37 15 13 27 97
24 67 -2 84 0 82 10 -3 17 55 70 86 78 12 4 38 3 57 0 22 -4 35 -3 35 4 0 5
18 10 40 10 28 0 40 4 40 14 0 8 7 17 16 20 30 12 105 6 129 -10 18 -12 37
-15 69 -10 27 4 47 3 51 -4 3 -5 -2 -10 -12 -10 -10 -1 2 -8 27 -16 25 -9 49
-20 55 -25 14 -14 25 -11 25 8 0 15 2 15 19 -1 15 -13 20 -14 24 -4 4 9 6 9 6
1 1 -7 8 -10 16 -7 8 4 26 -1 40 -10 13 -9 34 -15 47 -13 15 1 26 -6 35 -24 7
-15 24 -29 36 -33 29 -7 47 -45 54 -113 3 -29 10 -53 14 -53 5 0 9 -9 9 -20 0
-11 7 -23 15 -26 8 -4 15 -12 15 -20 0 -8 7 -14 15 -14 10 0 15 -10 15 -30 0
-44 0 -44 16 -53 8 -4 14 -19 14 -31 0 -33 31 -128 48 -148 10 -12 12 -28 7
-57 -5 -33 -3 -41 12 -50 24 -12 43 -108 43 -215 0 -45 6 -91 15 -112 8 -19
11 -33 6 -30 -4 3 -6 -36 -3 -85 2 -54 -1 -95 -7 -103 -7 -9 -7 -22 1 -43 9
-24 8 -43 -8 -97 -10 -36 -21 -66 -24 -66 -14 0 -80 -72 -75 -80 9 -14 -19
-12 -33 2 -8 8 -12 9 -12 1 0 -6 -3 -19 -7 -29 -4 -12 -3 -15 5 -10 9 5 9 1 3
-17 -6 -14 -7 -28 -4 -31 7 -6 -28 -76 -37 -76 -3 0 -6 -15 -5 -32 0 -27 5
-34 23 -36 12 -2 20 -8 17 -13 -4 -5 -2 -9 3 -9 5 0 14 -11 20 -25 10 -22 14
-24 32 -13 14 9 22 10 31 1 16 -16 2 -33 -26 -33 -32 0 -56 -10 -49 -21 3 -5
-2 -9 -10 -9 -9 0 -16 -7 -16 -14 0 -8 -17 -28 -37 -43 -76 -57 -116 -117 -75
-112 9 1 29 -3 43 -9 15 -6 44 -14 65 -18 58 -10 71 -44 18 -44 -14 0 -23 -4
-20 -8 2 -4 1 -14 -4 -21 -11 -19 8 -69 30 -76 26 -8 32 -32 18 -71 -10 -28
-9 -39 7 -74 11 -24 21 -36 25 -29 9 14 40 -27 40 -54 0 -10 7 -29 16 -42 10
-15 14 -36 11 -52 -12 -58 -12 -68 -1 -66 15 3 15 -95 -1 -147 -7 -25 -19 -65
-25 -90 -17 -66 -42 -121 -54 -117 -6 2 -17 21 -25 43 -9 21 -19 41 -24 43 -5
2 -17 12 -25 22 -28 33 -31 21 -10 -53 11 -40 22 -88 25 -105 5 -35 22 -45 24
-15 0 11 2 12 6 4 3 -7 0 -18 -5 -25 -6 -7 -9 -28 -7 -47 2 -19 4 -48 5 -65 1
-27 3 -25 19 20 11 32 20 44 24 35 3 -10 6 -7 6 9 1 37 23 101 32 95 12 -7 11
9 0 22 -5 5 0 40 12 84 20 71 22 73 27 40 l6 -35 12 53 c7 29 12 60 12 67 0 8
5 15 10 15 6 0 8 -10 5 -22 -2 -13 -7 -50 -9 -83 -4 -56 -23 -128 -26 -95 0 9
-7 3 -16 -13 -11 -20 -15 -57 -15 -125 0 -62 -5 -105 -14 -121 -7 -14 -19 -41
-25 -58 -7 -18 -19 -33 -27 -33 -10 0 -14 -7 -10 -20 3 -11 1 -18 -4 -14 -5 3
-9 -2 -9 -10 0 -9 -4 -16 -10 -16 -5 0 -10 -10 -10 -22 -1 -23 -1 -23 -16 2
-14 24 -15 24 -12 -22 2 -35 -1 -49 -14 -57 -9 -6 -22 -29 -28 -51 -7 -27 -19
-45 -36 -52 -13 -6 -24 -17 -24 -24 0 -7 -18 -25 -41 -41 -22 -15 -63 -49 -90
-76 -39 -36 -49 -42 -44 -25 7 23 7 23 -8 3 -8 -11 -15 -23 -16 -27 -1 -4 -16
-21 -32 -38 -18 -17 -29 -37 -25 -45 3 -9 0 -12 -10 -8 -8 3 -14 -1 -14 -10 0
-21 -95 -114 -156 -153 -82 -52 -149 -74 -231 -74 -47 0 -73 -4 -77 -12 -5
-10 -7 -10 -12 0 -3 6 -19 12 -35 12 -24 0 -29 -4 -29 -25 0 -14 8 -29 20 -35
26 -14 26 -30 0 -37 -25 -7 -23 -36 3 -41 11 -2 17 3 17 14 0 23 29 43 62 44
27 0 68 -39 68 -66 0 -8 4 -14 8 -14 5 0 12 -52 15 -115 5 -98 9 -118 27 -137
13 -14 20 -34 19 -53 -4 -56 1 -74 20 -80 11 -3 18 -12 15 -19 -3 -8 6 -23 20
-34 26 -20 34 -42 17 -42 -17 0 -71 -58 -71 -77 0 -10 -5 -24 -10 -29 -7 -7
-6 -19 2 -38 11 -22 18 -26 39 -22 17 3 29 -1 37 -15 9 -14 24 -19 61 -19 39
0 51 -4 63 -22 13 -19 18 -21 30 -10 13 10 15 5 12 -40 -1 -29 0 -41 2 -25 3
15 12 27 20 27 8 0 24 10 36 22 l23 23 3 -34 c2 -19 -2 -45 -9 -57 -8 -16 -9
-28 -2 -36 13 -17 34 -89 31 -108 -5 -32 16 -116 31 -127 15 -11 14 -15 -2
-44 -15 -27 -16 -34 -4 -48 8 -9 12 -22 10 -28 -3 -7 2 -13 10 -13 9 0 21 -16
27 -37 7 -21 22 -48 33 -61 16 -17 18 -25 9 -34 -7 -7 -12 -34 -12 -60 0 -41
3 -48 20 -48 26 0 25 -4 -6 -46 -21 -27 -23 -34 -10 -34 9 0 16 -4 16 -10 0
-5 6 -10 14 -10 20 0 27 -27 14 -55 -9 -21 -8 -28 7 -45 10 -11 23 -30 29 -41
6 -12 16 -21 21 -21 6 0 14 -6 18 -14 4 -8 16 -14 26 -14 16 0 51 -29 51 -42
0 -3 13 -20 30 -38 22 -24 28 -38 24 -56 -4 -14 -2 -25 5 -25 6 -1 15 -2 19
-3 20 -3 40 -35 46 -77 4 -24 13 -58 22 -74 8 -17 11 -31 6 -33 -6 -2 -3 -17
6 -34 11 -23 16 -68 17 -170 1 -76 -1 -138 -4 -138 -3 0 -7 -38 -8 -84 -1 -54
-7 -95 -17 -115 -9 -16 -16 -38 -16 -48 0 -10 -7 -31 -15 -46 l-14 -28 34 7
c33 6 35 4 33 -17 -3 -22 0 -24 32 -21 48 5 50 10 16 39 l-29 24 28 157 c54
311 63 349 92 383 11 13 11 34 3 110 -13 115 -29 409 -22 426 2 7 8 13 14 13
5 0 7 9 3 19 -12 38 12 29 44 -16 18 -25 35 -43 38 -39 3 3 0 12 -7 21 -7 8
-8 15 -2 15 14 0 20 -20 17 -62 -2 -24 1 -37 8 -35 7 1 11 -3 10 -10 -2 -7 6
-17 16 -23 16 -8 18 -7 14 13 -3 12 -7 29 -10 37 -8 20 -6 116 2 129 3 6 1 11
-4 11 -6 0 -11 5 -11 11 0 6 7 9 15 5 8 -3 15 -1 15 5 0 5 -9 13 -20 17 -14 5
-17 11 -10 22 8 12 10 12 10 1 0 -7 6 -11 15 -7 9 3 20 -5 29 -22 13 -23 15
-24 16 -7 0 23 50 -65 50 -90 0 -8 3 -15 8 -15 4 0 20 -25 36 -55 16 -30 32
-55 37 -55 5 0 9 -11 9 -25 0 -13 7 -28 16 -33 9 -5 14 -17 13 -27 -3 -15 -13
-9 -51 31 -26 26 -50 46 -53 42 -4 -4 3 -17 15 -30 32 -34 44 -58 28 -58 -7 0
0 -7 16 -15 16 -9 36 -13 43 -11 8 3 16 -1 19 -9 4 -8 15 -15 25 -15 10 0 19
-4 19 -9 0 -18 -32 -20 -62 -5 -16 8 -33 12 -36 8 -4 -4 -1 -9 6 -11 39 -14
322 -371 322 -407 0 -8 9 -18 20 -21 11 -3 20 -10 20 -15 0 -5 -7 -7 -16 -3
-14 5 -15 3 -3 -18 8 -16 14 -19 17 -11 6 18 42 -41 42 -68 0 -18 10 -25 33
-21 4 0 7 -8 7 -19 0 -11 5 -20 11 -20 6 0 8 8 4 19 -3 12 0 21 10 25 9 3 13
2 10 -4 -4 -6 8 -36 26 -68 57 -102 81 -153 76 -167 -3 -7 1 -12 11 -11 10 0
24 -13 34 -34 9 -19 24 -43 34 -52 9 -10 45 -79 80 -155 35 -76 64 -130 64
-120 0 9 -21 61 -46 115 -25 53 -54 115 -65 138 -10 22 -19 46 -19 52 0 35
-27 92 -47 101 -13 6 -23 15 -23 20 0 6 -12 22 -26 36 -26 26 -29 55 -6 63 6
2 12 -4 12 -12 0 -33 33 -76 58 -76 10 0 10 5 2 21 -22 39 -1 31 44 -17 25
-27 46 -58 47 -69 0 -11 3 -14 6 -7 5 13 33 17 33 4 0 -4 16 -25 35 -45 19
-20 35 -46 35 -56 0 -10 15 -34 33 -53 40 -42 54 -66 62 -112 4 -20 11 -39 16
-42 5 -3 9 -14 9 -25 0 -13 4 -18 12 -13 6 4 8 3 5 -3 -8 -13 20 -89 32 -86
11 3 24 -35 20 -58 -1 -8 3 -34 11 -59 l13 -45 8 35 c5 19 6 46 2 60 -3 14 -6
28 -5 32 1 4 -5 19 -13 34 -8 15 -11 32 -8 37 4 6 10 0 15 -14 5 -13 13 -26
17 -29 5 -3 16 -21 26 -40 10 -19 30 -53 46 -75 50 -70 106 -349 74 -365 -12
-6 -84 136 -85 166 0 12 -6 27 -14 33 -8 7 -18 37 -22 67 -6 52 -17 74 -28 56
-6 -11 46 -196 56 -200 5 -2 8 -9 8 -15 0 -7 6 -24 14 -38 7 -14 16 -43 20
-65 4 -21 14 -50 23 -63 8 -13 13 -34 10 -47 -2 -13 -1 -22 2 -19 13 7 33 -83
26 -115 -5 -22 -1 -40 14 -66 18 -30 23 -63 31 -192 15 -233 30 -344 66 -474
11 -39 -16 -15 -32 30 -10 26 -21 49 -24 52 -9 8 -30 98 -30 129 0 16 -10 57
-21 92 -12 35 -25 82 -29 104 -24 120 -53 245 -66 283 -8 23 -21 75 -29 116
-8 40 -27 101 -40 135 -14 34 -23 66 -20 71 4 6 3 10 -2 10 -12 0 -58 98 -50
107 4 3 -3 18 -15 31 -13 14 -17 22 -10 18 16 -9 15 -6 -3 31 -9 17 -23 34
-31 37 -10 4 -14 14 -11 26 3 11 1 18 -4 14 -5 -3 -9 10 -9 28 0 25 -3 29 -10
18 -8 -12 -10 -11 -10 8 0 12 -4 30 -9 40 -19 37 -50 109 -59 137 l-10 30 2
-35 c1 -19 9 -48 18 -65 8 -16 18 -43 22 -60 8 -32 41 -111 56 -135 6 -8 13
-22 16 -30 4 -8 24 -55 45 -104 22 -49 39 -93 39 -98 0 -5 11 -33 24 -61 13
-29 35 -97 49 -152 14 -55 32 -125 40 -155 8 -30 18 -82 21 -115 8 -74 19
-133 40 -208 9 -32 16 -67 16 -78 0 -26 38 -160 63 -227 14 -34 23 -48 29 -40
6 10 8 10 8 1 0 -8 15 -13 40 -13 25 0 40 5 40 13 -1 23 -30 179 -35 188 -11
17 -32 218 -24 231 4 7 5 26 3 43 -5 24 -3 27 6 15 9 -11 10 4 5 65 -4 44 -9
91 -12 105 -4 17 -2 22 5 15 5 -5 12 -30 15 -55 2 -25 12 -74 22 -110 9 -36
18 -85 20 -110 3 -53 36 -199 49 -219 7 -12 11 -10 18 10 12 32 25 11 34 -54
4 -26 11 -50 15 -53 5 -3 9 -16 9 -29 0 -59 -36 -55 546 -55 l533 0 1 67 c1
38 2 78 2 91 0 24 13 30 21 10 3 -7 6 21 7 62 l2 75 16 -80 c16 -78 17 -79 23
-40 3 22 12 54 18 70 7 17 14 71 16 120 1 50 3 97 4 105 1 8 -1 56 -3 107 -2
62 0 91 7 90 6 -1 13 7 15 18 4 16 2 17 -11 7 -13 -11 -16 -8 -22 18 -4 16 -4
43 0 59 3 17 2 38 -3 48 -5 10 -12 47 -16 83 -3 36 -10 83 -15 105 -6 22 -10
49 -10 60 l0 20 9 -20 c7 -17 9 -16 10 10 2 17 2 34 1 39 -1 4 3 14 10 22 8
10 8 22 0 47 -7 19 -9 41 -5 51 6 15 -24 108 -47 146 -4 8 -16 30 -25 48 -9
17 -20 32 -24 32 -8 0 -30 54 -30 71 0 5 7 9 15 9 18 0 18 1 5 34 -6 16 -6 27
0 31 6 4 10 -6 10 -21 0 -23 3 -26 27 -21 16 3 32 -1 40 -9 18 -18 33 -18 33
0 0 8 7 16 15 20 8 3 12 12 9 19 -3 8 2 17 10 20 25 10 19 23 -16 33 -25 7
-35 18 -42 42 -10 37 -4 48 21 37 10 -5 22 -9 27 -9 14 -1 31 -34 23 -43 -5
-4 -13 -1 -18 7 -9 13 -10 13 -6 0 8 -31 32 -16 32 20 0 19 5 35 10 35 6 0 16
4 23 8 7 5 15 2 19 -9 6 -15 7 -15 15 5 6 18 11 20 27 12 14 -8 22 -7 32 5 8
10 16 11 22 5 6 -6 15 -5 25 5 13 13 16 13 31 -1 10 -8 22 -15 27 -15 5 0 11
50 13 114 2 97 0 114 -14 120 -9 3 -13 10 -10 16 4 6 11 8 16 5 5 -4 9 336 9
881 l0 887 -20 -18 c-11 -10 -22 -16 -25 -13 -8 8 25 108 35 108 6 0 10 108
10 283 -1 317 -3 331 -60 310 -23 -9 -32 -8 -40 2 -8 10 -7 16 7 23 10 6 15
14 11 17 -4 4 -14 0 -23 -9 -20 -20 -29 -20 -45 -1 -7 8 -18 15 -25 15 -6 0
-12 13 -13 29 0 24 3 28 19 24 15 -4 18 -2 13 11 -8 20 -12 20 -48 1 -16 -9
-37 -13 -47 -10 -16 5 -16 8 -2 37 15 28 15 32 -1 43 -9 7 -16 17 -16 24 0 6
-4 11 -10 11 -10 0 -14 -13 -25 -85 -7 -41 -20 -65 -36 -65 -5 0 -9 8 -9 18 0
14 -9 18 -44 18 -26 1 -52 8 -60 17 -18 18 -21 34 -6 39 13 4 15 32 6 78 -5
28 -5 31 4 17 9 -14 15 -16 26 -6 7 6 11 15 8 20 -6 10 25 0 44 -14 15 -12 29
-1 34 28 2 15 -2 19 -18 17 -14 -2 -27 6 -38 23 -16 25 -16 26 9 35 15 6 30
10 34 10 5 0 14 6 20 14 10 12 6 15 -19 21 -28 6 -31 10 -25 36 6 24 4 28 -10
23 -13 -5 -16 -15 -12 -42 6 -32 5 -34 -20 -29 -28 5 -62 -21 -64 -50 0 -11
-3 -13 -6 -5 -7 18 -21 15 -19 -5 0 -10 -6 -18 -14 -18 -17 0 -53 -35 -58 -54
-1 -6 14 -19 33 -27 20 -8 35 -21 35 -31 0 -13 -3 -14 -12 -5 -17 17 -33 15
-19 -2 10 -11 9 -21 -4 -45 -8 -17 -22 -31 -29 -31 -8 0 -16 -7 -20 -15 -4
-11 -13 -14 -33 -9 -16 3 -43 8 -61 11 -27 4 -33 9 -29 24 7 25 9 26 -64 -12
-19 -9 -21 -8 -16 5 5 12 0 16 -18 16 -18 0 -28 9 -41 36 -10 20 -26 39 -36
42 -21 5 -25 42 -4 42 7 0 20 8 27 17 8 9 9 14 3 10 -7 -4 -14 0 -18 8 -3 9 0
15 10 15 14 0 14 2 0 15 -8 8 -20 15 -26 15 -7 0 -9 8 -4 22 8 26 20 38 57 57
33 18 39 61 7 61 -23 0 -23 1 -11 53 8 33 7 37 -7 33 -10 -3 -37 -10 -62 -16
-25 -6 -54 -15 -65 -20 -11 -5 -28 -10 -38 -12 -23 -4 -18 -24 6 -21 9 2 17
-1 17 -6 0 -12 -29 -23 -41 -15 -5 3 -9 -1 -9 -8 -1 -7 -10 -24 -21 -37 -17
-21 -22 -23 -30 -10 -8 11 -9 9 -5 -7 5 -16 0 -24 -20 -33 -23 -10 -30 -9 -48
8 -22 21 -22 21 -85 -17 -28 -17 -27 -1 0 18 12 8 35 27 51 41 16 14 48 36 71
49 93 50 155 80 166 80 6 0 11 4 11 8 0 10 88 37 112 34 15 -1 16 2 7 22 -11
23 -61 42 -80 30 -5 -3 -41 -7 -81 -10 -111 -7 -113 -8 -172 -47 -31 -21 -56
-35 -56 -33 0 3 16 21 37 41 38 37 35 44 -9 21 -16 -8 -28 -12 -28 -8 0 12 64
52 70 44 3 -4 18 5 35 20 16 16 24 28 18 28 -6 0 -18 -6 -25 -13 -7 -6 -40
-23 -73 -36 -111 -46 -181 -100 -119 -94 10 1 32 3 49 5 40 4 45 -23 8 -47
l-28 -18 19 21 c19 22 19 22 -12 22 -59 0 -79 -14 -86 -64 -7 -44 -26 -74 -26
-41 0 9 -17 33 -38 53 -50 48 -57 74 -27 102 20 19 22 25 12 41 -6 10 -17 18
-24 16 -6 -1 -12 2 -12 6 0 5 -17 24 -38 44 -22 21 -33 37 -26 40 7 2 9 11 6
19 -3 7 -9 11 -14 8 -5 -3 -9 1 -9 8 0 7 13 14 31 15 26 2 29 -1 24 -17 -5
-15 -2 -20 14 -20 11 0 23 -4 26 -10 10 -16 25 -12 19 5 -3 8 -2 20 2 27 5 7
10 24 12 37 7 54 19 52 18 -3 0 -31 5 -61 12 -68 8 -8 12 -8 12 -1 0 6 12 15
28 21 27 9 66 72 74 117 2 11 21 39 43 63 32 36 44 42 65 37 38 -10 39 0 -13
-103 -32 -61 -34 -98 -7 -130 16 -20 22 -21 40 -10 24 15 30 33 33 88 1 23 3
37 5 31 5 -15 35 -14 52 2 12 10 12 9 1 -5 -7 -9 -10 -22 -6 -28 4 -6 1 -17
-5 -25 -10 -12 -10 -15 2 -15 8 0 18 3 22 7 8 9 77 33 94 33 27 0 10 -32 -25
-46 -50 -22 -116 -68 -86 -61 28 6 40 -8 18 -21 -27 -14 -8 -43 24 -35 14 3
29 11 33 16 3 6 34 10 67 10 44 -1 61 3 61 12 0 8 7 21 16 29 14 15 14 16 0
16 -9 0 -16 5 -16 11 0 5 5 7 10 4 6 -3 10 0 10 9 0 8 -6 16 -12 19 -10 3 -10
9 -1 25 10 16 10 22 0 26 -9 5 -9 7 1 12 10 5 10 9 1 21 -10 12 -10 16 2 24
10 6 4 9 -20 9 -29 0 -32 2 -21 15 7 8 21 15 31 15 21 0 25 20 7 38 -15 15 9
16 46 2 17 -6 26 -6 26 0 0 18 29 11 42 -10 7 -11 18 -20 25 -20 24 0 25 22 3
52 -24 32 -16 48 23 48 23 0 17 22 -10 35 -21 11 -21 11 3 38 16 18 33 27 53
27 22 0 35 7 47 25 11 17 24 25 43 23 53 -3 107 13 125 38 21 27 46 32 46 9 0
-8 5 -15 10 -15 6 0 10 12 10 26 0 23 3 25 25 20 14 -4 25 -2 25 4 0 5 18 10
39 10 33 0 40 -4 44 -22 4 -19 5 -18 6 6 1 25 3 27 18 15 12 -11 17 -11 20 -2
3 7 15 10 31 7 19 -4 34 1 49 15 27 25 33 26 33 5 0 -12 5 -10 20 9 11 14 20
30 20 36 0 6 5 11 10 11 6 0 10 -6 10 -14 0 -8 7 -16 15 -20 13 -5 15 172 15
1553 l0 1558 -22 -1 c-13 -1 -26 -1 -30 1 -8 4 16 47 39 71 10 10 13 87 13
323 l-1 309 -252 -1 c-172 -1 -242 -4 -220 -10 18 -5 34 -13 37 -18 8 -12 -23
-51 -40 -51 -10 0 -13 -7 -8 -25 5 -19 2 -25 -10 -25 -13 0 -16 -11 -16 -55 0
-44 -3 -55 -16 -55 -11 0 -14 -5 -10 -16 3 -9 -1 -37 -10 -62 -8 -26 -16 -60
-16 -75 -1 -15 -5 -30 -10 -33 -4 -3 -8 -16 -8 -29 0 -13 -4 -27 -10 -30 -19
-12 -22 45 -6 114 9 39 17 90 17 113 1 24 6 48 10 54 5 5 9 41 10 80 1 38 5
81 10 97 l8 27 -3570 0 -3569 0 0 -2790z m7027 2720 c-3 -11 -1 -23 4 -26 14
-8 10 -24 -6 -24 -15 0 -22 50 -8 63 12 12 15 7 10 -13z m-678 -52 c1 -10 -6
-18 -15 -18 -12 0 -15 6 -10 23 3 12 6 29 7 37 1 20 17 -18 18 -42z m48 -10
c-3 -8 -6 -5 -6 6 -1 11 2 17 5 13 3 -3 4 -12 1 -19z m-1110 -50 c-3 -7 -5 -2
-5 12 0 14 2 19 5 13 2 -7 2 -19 0 -25z m1953 -48 c0 -5 -7 -10 -16 -10 -8 0
-12 5 -9 10 3 6 10 10 16 10 5 0 9 -4 9 -10z m-1953 -42 c-3 -7 -5 -2 -5 12 0
14 2 19 5 13 2 -7 2 -19 0 -25z m1380 -15 c-3 -10 -5 -2 -5 17 0 19 2 27 5 18
2 -10 2 -26 0 -35z m324 -26 c-13 -13 -15 1 -4 30 7 17 8 17 11 -1 2 -10 -1
-23 -7 -29z m480 -154 c15 4 17 -1 12 -32 -7 -45 -37 -141 -58 -186 -17 -35
-50 -59 -38 -27 6 15 5 15 -10 3 -25 -20 -31 -8 -31 53 1 68 22 152 41 168 14
11 15 5 9 -52 l-6 -65 15 45 c8 25 17 65 21 90 6 41 8 43 17 22 7 -15 17 -22
28 -19z m-1575 -99 c-3 -7 -12 -11 -20 -8 -15 6 -11 39 8 63 9 12 12 9 14 -13
2 -15 1 -34 -2 -42z m320 39 c-10 -10 -19 5 -10 18 6 11 8 11 12 0 2 -7 1 -15
-2 -18z m-249 -41 c-3 -27 -13 -64 -21 -83 l-16 -34 4 65 c5 73 13 100 28 100
7 0 9 -18 5 -48z m400 3 c4 -38 -12 -49 -19 -12 -4 26 1 61 9 53 3 -3 7 -21
10 -41z m76 -37 c-3 -46 -7 -85 -9 -87 -2 -2 -4 35 -4 82 0 48 4 87 9 87 5 0
7 -36 4 -82z m1165 57 c-3 -13 -1 -26 5 -28 15 -5 -8 -74 -38 -113 -28 -36
-52 -46 -40 -16 4 9 16 51 27 92 22 84 25 90 40 90 6 0 8 -11 6 -25z m-525
-55 c-6 -44 -29 -110 -38 -110 -7 0 3 91 16 138 15 55 30 36 22 -28z m-860 7
c-11 -62 -22 -63 -23 -3 0 50 2 57 15 46 9 -8 12 -22 8 -43z m-171 -19 c3 -26
2 -45 -3 -42 -5 3 -9 26 -9 51 0 58 6 53 12 -9z m-2422 -18 c0 -5 -4 -10 -10
-10 -5 0 -10 5 -10 10 0 6 5 10 10 10 6 0 10 -4 10 -10z m3831 -83 c-8 -8 -11
-4 -11 14 0 33 14 47 18 19 2 -12 -1 -27 -7 -33z m-1265 -3 c-16 -30 -21 -17
-10 24 4 15 10 20 16 14 6 -6 4 -20 -6 -38z m-46 29 c0 -5 -4 -15 -10 -23 -11
-18 -25 -7 -17 15 6 15 27 21 27 8z m-540 -22 c0 -5 -7 -11 -15 -15 -9 -3 -15
0 -15 9 0 8 7 15 15 15 8 0 15 -4 15 -9z m-2490 -11 c0 -5 -18 -10 -40 -10
-22 0 -40 -4 -40 -10 0 -5 -5 -10 -11 -10 -6 0 -9 6 -7 13 3 6 22 15 44 18 21
3 42 7 47 8 4 0 7 -3 7 -9z m3910 -67 c-11 -17 -11 -17 -6 0 3 10 7 31 7 45
l2 27 4 -27 c2 -15 -1 -35 -7 -45z m-55 -33 c3 -5 1 -10 -4 -10 -6 0 -11 5
-11 10 0 6 2 10 4 10 3 0 8 -4 11 -10z m55 0 c0 -5 -4 -10 -10 -10 -5 0 -10 5
-10 10 0 6 5 10 10 10 6 0 10 -4 10 -10z m281 -73 c-11 -11 -11 -2 0 48 1 6 4
-1 6 -14 3 -13 0 -28 -6 -34z m-2184 -9 c-3 -7 -5 -2 -5 12 0 14 2 19 5 13 2
-7 2 -19 0 -25z m1901 -34 c-2 -19 1 -36 7 -38 7 -3 6 -7 -1 -13 -6 -4 -15
-18 -19 -31 -3 -13 -12 -21 -18 -19 -15 5 -15 9 3 84 14 64 35 76 28 17z m96
-92 c-3 -31 -9 -61 -13 -67 -5 -5 -9 -17 -9 -25 -1 -8 -5 -31 -10 -50 -8 -35
-8 -35 -14 20 -3 30 -2 65 3 77 5 13 6 36 3 53 -9 40 0 60 25 53 18 -4 19 -11
15 -61z m-114 -51 c0 -6 -4 -13 -10 -16 -5 -3 -10 1 -10 9 0 9 5 16 10 16 6 0
10 -4 10 -9z m-1793 -113 c-3 -8 -6 -5 -6 6 -1 11 2 17 5 13 3 -3 4 -12 1 -19z
m1758 -37 c3 -5 1 -12 -5 -16 -5 -3 -10 1 -10 9 0 18 6 21 15 7z m-8 -83 c-3
-7 -5 -2 -5 12 0 14 2 19 5 13 2 -7 2 -19 0 -25z m-7 -44 c0 -14 -4 -23 -9
-20 -5 3 -7 15 -4 26 7 28 13 25 13 -6z m-4 -74 c-5 -32 -3 -40 9 -40 8 0 15
-7 15 -15 0 -8 -4 -15 -10 -15 -5 0 -10 6 -10 13 0 8 -4 7 -10 -3 -7 -11 -10
-1 -10 36 0 46 5 64 18 64 2 0 2 -18 -2 -40z m44 -14 c0 -3 -4 -8 -10 -11 -5
-3 -10 -1 -10 4 0 6 5 11 10 11 6 0 10 -2 10 -4z m-581 -53 c-7 -21 -14 -32
-17 -25 -4 14 18 75 25 68 3 -3 -1 -22 -8 -43z m-92 -10 c-3 -10 -5 -4 -5 12
0 17 2 24 5 18 2 -7 2 -21 0 -30z m953 1 c0 -21 -4 -33 -10 -29 -17 10 -11 65
7 65 2 0 3 -16 3 -36z m87 -26 c-3 -8 -6 -5 -6 6 -1 11 2 17 5 13 3 -3 4 -12
1 -19z m-990 -105 c-3 -10 -5 -4 -5 12 0 17 2 24 5 18 2 -7 2 -21 0 -30z
m-247 8 c0 -6 -4 -13 -10 -16 -5 -3 -10 1 -10 9 0 9 5 16 10 16 6 0 10 -4 10
-9z m17 -123 c-3 -7 -5 -2 -5 12 0 14 2 19 5 13 2 -7 2 -19 0 -25z m17 -63 c5
-22 4 -26 -4 -15 -5 8 -10 24 -10 34 0 26 6 18 14 -19z m-3499 -125 c-34 -7
-40 -5 -31 8 3 5 18 7 33 4 l28 -6 -30 -6z m3932 -237 c-3 -10 -5 -2 -5 17 0
19 2 27 5 18 2 -10 2 -26 0 -35z m-4739 -220 c0 -16 -2 -39 -5 -52 -3 -20 -6
-22 -14 -10 -7 12 -9 11 -9 -3 0 -10 -5 -18 -11 -18 -6 0 -9 6 -6 13 27 68 40
97 42 97 2 0 3 -12 3 -27z m5229 -75 c-3 -7 -5 -2 -5 12 0 14 2 19 5 13 2 -7
2 -19 0 -25z m-5148 -32 c-27 -28 -30 -28 -22 2 3 13 13 22 25 22 19 0 19 -1
-3 -24z m5598 -48 c-3 -8 -6 -5 -6 6 -1 11 2 17 5 13 3 -3 4 -12 1 -19z
m-5554 -34 c-1 -16 -5 -53 -9 -82 -6 -50 -8 -52 -24 -37 -26 24 -30 2 -12 -65
19 -71 20 -179 2 -190 -8 -5 -25 -1 -44 11 -17 10 -39 19 -48 19 -11 0 -18 7
-18 18 0 33 12 62 26 62 18 0 18 0 -6 60 -32 82 -26 120 22 139 20 8 29 7 38
-4 17 -20 30 -9 30 25 0 40 18 82 33 77 6 -2 11 -17 10 -33z m2234 -20 c-3 -3
-12 -4 -19 -1 -8 3 -5 6 6 6 11 1 17 -2 13 -5z m3330 -46 c-2 -13 -4 -5 -4 17
-1 22 1 32 4 23 2 -10 2 -28 0 -40z m-81 -15 l-10 -58 -9 38 c-8 31 -6 42 8
57 10 11 19 20 20 20 1 0 -3 -26 -9 -57z m-3254 -25 c-9 -9 -12 -7 -12 12 0
19 3 21 12 12 9 -9 9 -15 0 -24z m2108 -8 c0 -5 -2 -10 -4 -10 -3 0 -8 5 -11
10 -3 6 -1 10 4 10 6 0 11 -4 11 -10z m1227 -12 c-3 -8 -6 -5 -6 6 -1 11 2 17
5 13 3 -3 4 -12 1 -19z m-3341 -55 c-11 -11 -19 6 -11 24 8 17 8 17 12 0 3
-10 2 -21 -1 -24z m14 -81 c0 -14 -11 -21 -26 -15 -8 3 -11 9 -8 14 7 11 34
12 34 1z m3337 -49 c-3 -10 -5 -2 -5 17 0 19 2 27 5 18 2 -10 2 -26 0 -35z
m-5706 -63 c10 -6 28 -29 40 -52 45 -88 5 -261 -59 -251 -31 4 -66 31 -81 63
-22 45 -26 135 -7 185 24 61 60 80 107 55z m4856 -342 c-2 -13 -4 -5 -4 17 -1
22 1 32 4 23 2 -10 2 -28 0 -40z m-4851 -4 c22 8 17 -12 -6 -24 -24 -13 -26
-39 -5 -66 8 -10 15 -25 15 -31 0 -24 -17 -13 -35 21 -16 30 -17 38 -4 81 8
26 16 40 17 31 2 -10 10 -15 18 -12z m90 -39 c8 -13 12 -29 8 -36 -4 -7 -12 0
-20 21 -8 18 -14 34 -14 36 0 11 11 2 26 -21z m5161 -147 c-3 -8 -6 -5 -6 6
-1 11 2 17 5 13 3 -3 4 -12 1 -19z m-5217 -74 c12 -25 18 -54 15 -65 -4 -13
-2 -19 9 -19 9 0 23 -14 32 -32 15 -29 15 -32 0 -43 -22 -16 -20 -28 3 -20 15
5 24 -5 47 -49 31 -62 34 -41 -32 -241 -18 -55 -47 -147 -65 -205 -17 -58 -35
-109 -39 -115 -4 -5 -10 -23 -14 -39 -5 -22 -10 -26 -19 -17 -8 8 -8 14 1 23
20 20 15 41 -8 35 -15 -4 -20 0 -20 14 0 10 -4 19 -9 19 -15 0 -24 41 -12 53
16 16 14 27 -4 21 -10 -4 -15 0 -15 10 0 9 -9 29 -20 44 -22 29 -29 108 -15
152 l8 25 -23 -20 c-21 -18 -23 -18 -17 -2 4 10 7 27 7 37 0 20 33 37 38 21 6
-17 19 -13 25 8 3 13 0 17 -12 15 -21 -5 -51 15 -33 23 6 2 10 8 8 12 -3 4 5
7 17 7 16 -1 23 6 25 23 3 18 0 22 -12 18 -21 -8 -22 29 -1 50 9 8 13 23 11
32 -6 16 10 69 31 106 6 12 11 27 11 35 -2 35 3 50 17 50 8 0 15 8 15 18 0 14
-2 15 -10 2 -8 -12 -10 -11 -10 7 0 17 32 53 47 53 1 0 12 -20 23 -46z m2457
24 c-3 -8 -6 -5 -6 6 -1 11 2 17 5 13 3 -3 4 -12 1 -19z m2473 -359 c0 -14
-12 -10 -26 9 -22 29 -16 51 6 23 11 -13 20 -27 20 -32z m-344 -46 c-11 -11
-19 6 -11 24 8 17 8 17 12 0 3 -10 2 -21 -1 -24z m-616 7 c0 -5 -10 -10 -22
-10 -19 0 -20 2 -8 10 19 13 30 13 30 0z m368 -5 c17 -3 32 -10 32 -14 0 -5
-15 -8 -32 -7 -31 1 -33 -1 -36 -36 -4 -48 -19 -49 -28 -3 -3 19 -10 38 -15
41 -5 3 -9 11 -9 19 0 14 3 14 88 0z m-146 -27 c-9 -9 -12 -7 -12 12 0 19 3
21 12 12 9 -9 9 -15 0 -24z m-58 -16 c2 -4 1 -14 -4 -21 -10 -17 -31 -5 -23
14 6 16 19 20 27 7z m-100 -37 c14 -11 29 -75 18 -75 -19 1 -40 28 -46 61 -6
34 4 65 12 37 3 -7 10 -17 16 -23z m966 -3 c0 -7 -4 -10 -10 -7 -5 3 -10 16
-10 28 0 18 2 19 10 7 5 -8 10 -21 10 -28z m-920 -29 c0 -22 -2 -25 -10 -13
-13 20 -13 40 0 40 6 0 10 -12 10 -27z m144 -19 c-5 -18 0 -31 16 -48 19 -21
20 -27 8 -45 -17 -27 -26 -27 -32 2 -3 12 -7 33 -10 47 -6 30 3 70 15 70 5 0
6 -11 3 -26z m459 10 c3 -3 3 -12 0 -20 -4 -10 -9 -11 -23 -2 -10 7 -16 16
-14 20 6 9 28 11 37 2z m151 -28 c-2 -6 -17 -12 -34 -13 -34 -2 -32 18 3 34
23 11 39 0 31 -21z m-864 -29 c0 -5 -4 -5 -10 -2 -5 3 -10 -1 -10 -9 0 -8 5
-18 10 -21 6 -3 10 -11 10 -18 0 -6 -7 -2 -15 9 -8 10 -15 34 -15 53 0 33 1
34 15 15 8 -10 15 -23 15 -27z m685 2 c0 -9 -10 -13 -29 -12 -34 3 -40 7 -33
27 7 19 62 6 62 -15z m-635 0 c0 -6 -4 -7 -10 -4 -5 3 -10 11 -10 16 0 6 5 7
10 4 6 -3 10 -11 10 -16z m680 -19 c-18 -16 -38 -30 -44 -30 -5 0 6 14 24 30
18 17 38 30 44 30 5 0 -6 -13 -24 -30z m-645 -20 c3 -5 2 -10 -4 -10 -5 0 -13
5 -16 10 -3 6 -2 10 4 10 5 0 13 -4 16 -10z m83 -59 c-6 -29 -28 -23 -28 8 0
16 -4 33 -10 36 -5 3 -10 12 -10 18 1 7 12 -1 25 -18 14 -16 24 -36 23 -44z
m62 33 c0 -13 4 -32 9 -42 26 -51 33 -71 28 -84 -3 -8 -8 -3 -15 14 -6 14 -16
29 -22 33 -6 4 -8 16 -4 27 5 16 3 20 -8 16 -9 -4 -18 4 -25 23 -6 16 -7 27
-2 23 5 -3 12 2 15 10 9 22 24 9 24 -20z m345 26 c-3 -5 -11 -10 -16 -10 -6 0
-7 5 -4 10 3 6 11 10 16 10 6 0 7 -4 4 -10z m-192 -61 c-8 -29 -13 -23 -13 14
0 22 3 28 9 18 5 -7 6 -22 4 -32z m-337 23 c6 -4 13 -14 16 -23 6 -15 4 -15
-23 -2 -16 8 -27 19 -24 24 7 11 16 11 31 1z m89 -42 c14 -27 14 -28 -8 -17
-13 6 -23 20 -23 33 -2 29 11 22 31 -16z m594 30 c5 0 6 -11 3 -25 -2 -14 -8
-25 -12 -25 -5 0 -14 -2 -22 -5 -7 -3 -19 -1 -27 4 -11 7 -10 13 4 35 11 16
24 25 32 22 8 -4 18 -6 22 -6z m101 -32 c0 -7 -5 -20 -10 -28 -8 -12 -10 -9
-10 13 0 15 5 27 10 27 6 0 10 -6 10 -12z m-740 -34 c0 -8 -4 -12 -10 -9 -5 3
-10 10 -10 16 0 5 5 9 10 9 6 0 10 -7 10 -16z m570 -16 c0 -7 -7 -22 -15 -32
-14 -19 -15 -19 -15 5 0 14 3 29 7 32 10 11 23 8 23 -5z m-320 -13 c0 -8 -4
-15 -10 -15 -5 0 -10 7 -10 15 0 8 5 15 10 15 6 0 10 -7 10 -15z m537 -72 c-2
-16 -4 -5 -4 22 0 28 2 40 4 28 2 -13 2 -35 0 -50z m-689 20 c2 -8 -5 -13 -18
-13 -16 0 -20 -4 -16 -16 3 -9 6 -20 6 -26 0 -13 71 -82 93 -91 9 -3 17 -12
17 -19 0 -7 9 -19 20 -26 12 -7 18 -17 15 -23 -4 -5 -2 -15 3 -22 5 -7 13 -28
17 -47 7 -33 7 -34 -11 -20 -11 9 -31 22 -46 30 -16 7 -28 17 -28 22 0 4 -7 8
-15 8 -8 0 -15 4 -15 9 0 5 -9 11 -20 14 -11 3 -20 11 -20 17 0 7 7 10 18 6
11 -5 9 1 -8 17 -14 13 -32 44 -39 68 -7 24 -19 57 -27 72 -24 49 -19 59 28
55 23 -2 43 -9 46 -15z m634 -60 c-3 -16 -7 -22 -10 -15 -4 13 4 42 11 42 2 0
2 -12 -1 -27z m-573 -40 c9 -19 9 -23 -2 -23 -15 0 -29 34 -19 44 6 7 6 7 21
-21z m-89 -93 c0 -5 -2 -10 -4 -10 -3 0 -8 5 -11 10 -3 6 -1 10 4 10 6 0 11
-4 11 -10z m555 -20 c-4 -6 -18 -15 -31 -20 -13 -5 -23 -13 -22 -17 5 -18 -14
-52 -32 -58 -11 -3 -28 -18 -39 -31 -11 -14 -24 -23 -29 -20 -6 3 -9 -2 -8
-12 1 -23 -28 -22 -32 1 -4 21 16 77 28 77 4 0 20 12 36 27 16 15 31 28 34 28
19 4 80 41 80 49 0 6 4 6 11 -1 6 -6 8 -16 4 -23z m182 -105 c6 -17 -23 -55
-41 -55 -13 0 -39 -36 -46 -65 -4 -14 -16 -21 -38 -23 -44 -4 -41 12 14 65 34
32 51 42 66 37 17 -5 19 -3 13 15 -11 35 19 59 32 26z m-547 -26 c0 -5 -4 -9
-10 -9 -5 0 -10 7 -10 16 0 8 5 12 10 9 6 -3 10 -10 10 -16z m130 -48 c0 -25
-25 -46 -36 -30 -4 7 -2 15 4 17 7 2 12 10 12 18 0 8 5 14 10 14 6 0 10 -8 10
-19z m-135 -21 c3 -5 2 -10 -4 -10 -5 0 -13 5 -16 10 -3 6 -2 10 4 10 5 0 13
-4 16 -10z m186 -83 c-6 -6 -11 -19 -11 -29 0 -23 -16 -24 -24 -2 -7 19 22 57
36 48 6 -4 6 -10 -1 -17z m-131 -14 c0 -5 -7 -16 -14 -26 -16 -20 -30 -8 -20
17 6 16 34 23 34 9z m535 -3 c3 -5 -1 -10 -9 -10 -8 0 -18 5 -21 10 -3 6 1 10
9 10 8 0 18 -4 21 -10z m-269 -99 c-17 -18 -17 -20 1 -29 26 -15 7 -27 -22
-14 -20 9 -25 9 -25 -2 0 -8 6 -16 13 -19 7 -2 13 -16 15 -30 1 -18 -4 -26
-20 -30 -27 -7 -26 -8 -28 23 -5 61 0 80 24 90 13 5 27 14 31 19 3 6 11 11 17
11 6 0 3 -9 -6 -19z m894 -21 c0 -5 -4 -10 -10 -10 -5 0 -10 5 -10 10 0 6 5
10 10 10 6 0 10 -4 10 -10z m-537 -80 c-3 -12 -8 -19 -11 -16 -5 6 5 36 12 36
2 0 2 -9 -1 -20z m61 -19 c7 -11 -22 -23 -35 -15 -5 3 -7 10 -4 15 8 12 32 12
39 0z m-499 -21 c3 -5 1 -10 -4 -10 -6 0 -11 5 -11 10 0 6 2 10 4 10 3 0 8 -4
11 -10z m1010 -19 c3 -10 17 -22 30 -25 16 -4 25 -14 25 -26 0 -24 -17 -35
-34 -20 -11 8 -23 6 -50 -9 -20 -12 -39 -20 -43 -18 -7 2 -19 -39 -22 -73 0
-9 12 -21 29 -27 22 -8 30 -18 30 -37 0 -13 -4 -28 -10 -31 -6 -4 -10 7 -10
24 0 38 -23 41 -57 9 -20 -19 -26 -20 -48 -8 -22 12 -37 52 -17 49 19 -3 22 3
12 21 -6 11 -18 20 -28 20 -14 0 -12 5 8 21 14 12 20 22 14 25 -6 3 -9 16 -6
29 3 17 15 28 38 35 19 7 34 15 34 18 0 4 17 7 37 7 23 0 38 5 39 13 2 20 4
22 13 22 5 0 12 -9 16 -19z m-1062 2 c-7 -2 -21 -2 -30 0 -10 3 -4 5 12 5 17
0 24 -2 18 -5z m361 -8 c-4 -8 -2 -15 4 -15 5 0 15 7 22 15 14 17 85 21 75 5
-3 -5 -16 -10 -28 -10 -13 0 -33 -7 -45 -16 -18 -13 -26 -13 -38 -4 -11 10
-12 16 -3 26 15 18 20 18 13 -1z m-227 -11 c-3 -3 -12 -4 -19 -1 -8 3 -5 6 6
6 11 1 17 -2 13 -5z m199 -14 c19 0 18 -26 -2 -34 -25 -10 -37 -7 -31 8 3 7 0
19 -6 26 -10 10 -8 12 6 6 10 -3 25 -6 33 -6z m-76 -30 c0 -5 -4 -10 -10 -10
-5 0 -10 5 -10 10 0 6 5 10 10 10 6 0 10 -4 10 -10z m172 -14 c-5 -6 -12 -18
-15 -26 -3 -8 -6 -1 -6 17 -1 25 2 31 14 27 10 -4 12 -10 7 -18z m-42 7 c-1
-14 -30 -47 -36 -41 -10 11 7 48 22 48 8 0 14 -3 14 -7z m-350 -7 c0 -3 -4 -8
-10 -11 -5 -3 -10 -1 -10 4 0 6 5 11 10 11 6 0 10 -2 10 -4z m100 -41 c0 -8
-4 -15 -10 -15 -5 0 -10 7 -10 15 0 8 5 15 10 15 6 0 10 -7 10 -15z m-2676 -6
c-3 -6 1 -10 12 -9 37 4 64 0 64 -10 0 -5 -9 -10 -20 -10 -11 0 -20 -7 -20
-15 0 -8 5 -15 11 -15 5 0 7 -5 4 -10 -4 -6 -8 -29 -10 -51 -3 -31 -1 -39 9
-36 8 3 19 -5 25 -17 18 -33 51 -51 63 -34 8 10 9 9 5 -4 -4 -10 1 -18 14 -21
20 -5 27 -37 7 -37 -21 0 -103 59 -127 91 -17 23 -22 41 -19 69 2 27 -1 41
-12 48 -9 6 -15 21 -14 38 3 35 3 34 10 34 3 0 2 -5 -2 -11z m2652 -47 c-8
-24 -47 -36 -59 -19 -6 8 -7 6 -3 -6 9 -28 -4 -41 -20 -20 -23 30 -17 43 21
43 31 0 35 3 35 27 0 25 1 26 16 11 10 -10 14 -24 10 -36z m311 26 c-3 -8 -6
-5 -6 6 -1 11 2 17 5 13 3 -3 4 -12 1 -19z m3 -27 c0 -5 7 -11 16 -13 17 -3
32 -68 16 -68 -29 1 -71 90 -42 90 6 0 10 -4 10 -9z m780 -1 c0 -5 -7 -7 -15
-4 -8 4 -15 8 -15 10 0 2 7 4 15 4 8 0 15 -4 15 -10z m50 0 c0 -5 -5 -10 -11
-10 -5 0 -7 5 -4 10 3 6 8 10 11 10 2 0 4 -4 4 -10z m-745 -10 c3 -5 -1 -10
-9 -10 -9 0 -16 5 -16 10 0 6 4 10 9 10 6 0 13 -4 16 -10z m-2955 -20 c0 -5
-4 -10 -10 -10 -5 0 -10 5 -10 10 0 6 5 10 10 10 6 0 10 -4 10 -10z m3285 -11
c-8 -12 -35 -12 -35 0 0 11 22 20 33 14 4 -2 5 -9 2 -14z m-295 -9 c4 0 6 -9
3 -20 -4 -14 0 -20 11 -20 9 0 16 -5 16 -10 0 -6 -11 -8 -26 -4 -25 6 -26 5
-20 -20 3 -14 2 -26 -3 -26 -5 0 -11 -6 -14 -12 -2 -7 -3 -3 -1 8 2 12 -1 36
-7 53 -13 38 -5 65 17 57 9 -3 19 -6 24 -6z m-2982 -18 c2 -7 -4 -15 -13 -18
-20 -8 -27 -1 -19 20 7 18 25 17 32 -2z m2833 -35 c-18 -18 -21 -19 -21 -5 0
22 33 55 38 38 3 -7 -5 -22 -17 -33z m-2776 -7 c3 -5 1 -10 -4 -10 -6 0 -11 5
-11 10 0 6 2 10 4 10 3 0 8 -4 11 -10z m-50 -10 c3 -5 1 -10 -4 -10 -6 0 -11
5 -11 10 0 6 2 10 4 10 3 0 8 -4 11 -10z m3023 -69 c-7 -22 -17 -41 -21 -41
-5 0 -5 5 -1 12 5 7 2 9 -9 5 -8 -3 -20 0 -26 6 -7 9 0 19 24 36 19 13 32 28
28 35 -4 8 -3 8 6 0 9 -9 9 -20 -1 -53z m-558 3 c0 -14 -4 -23 -10 -19 -5 3
-10 15 -10 26 0 10 5 19 10 19 6 0 10 -12 10 -26z m320 18 c0 -5 -7 -17 -15
-28 -14 -19 -14 -19 -15 2 0 11 3 24 7 27 9 10 23 9 23 -1z m107 -7 c7 -20 -4
-32 -18 -18 -8 8 -16 6 -30 -8 -33 -33 -58 -24 -43 15 5 13 9 14 20 5 9 -7 14
-8 14 -1 0 9 16 17 43 21 4 0 10 -6 14 -14z m-242 -63 c20 -39 25 -56 17 -64
-22 -22 -84 94 -66 123 8 14 17 4 49 -59z m-2520 34 c19 -8 35 -18 35 -21 0
-3 -9 -1 -19 5 -11 5 -26 10 -33 10 -7 0 2 -8 20 -16 17 -9 32 -20 32 -25 0
-13 -12 -11 -53 6 -28 11 -34 19 -30 35 6 24 5 24 48 6z m2259 -12 c9 -22 -3
-32 -14 -14 -12 19 -12 30 -1 30 5 0 12 -7 15 -16z m176 -42 c0 -6 8 -13 17
-16 12 -5 13 -10 5 -18 -8 -8 -16 -5 -31 13 -11 13 -20 30 -21 37 0 6 -4 12
-10 12 -5 0 -10 7 -10 15 0 12 7 9 25 -9 14 -14 25 -29 25 -34z m521 48 c5 0
9 -4 9 -9 0 -12 -49 -20 -56 -10 -9 14 7 31 23 25 8 -3 19 -6 24 -6z m-2890
-63 c-8 -8 -11 -7 -11 4 0 20 13 34 18 19 3 -7 -1 -17 -7 -23z m2762 8 c-17
-23 -33 -32 -33 -18 0 10 32 43 42 43 5 0 1 -11 -9 -25z m-121 -85 c12 -13 15
-28 11 -54 -3 -20 -10 -36 -15 -36 -5 0 -6 -4 -3 -10 3 -5 1 -10 -5 -10 -6 0
-9 -4 -6 -9 3 -5 -1 -14 -8 -21 -12 -9 -19 -7 -35 9 -23 23 -26 43 -11 72 8
13 7 25 0 40 -7 11 -9 27 -6 36 8 19 54 9 78 -17z m160 -14 c3 -15 -2 -30 -12
-39 -16 -13 -20 -13 -34 1 -14 15 -14 18 6 39 27 29 35 29 40 -1z m38 -27 c0
-5 -4 -9 -10 -9 -5 0 -10 7 -10 16 0 8 5 12 10 9 6 -3 10 -10 10 -16z m443 -9
c3 -11 1 -20 -4 -20 -5 0 -9 9 -9 20 0 11 2 20 4 20 2 0 6 -9 9 -20z m-755
-66 c34 -41 62 -83 62 -93 0 -5 18 -29 40 -52 22 -24 40 -49 40 -56 0 -6 6
-16 14 -20 35 -21 62 -133 31 -133 -13 0 -13 -5 3 -32 22 -41 86 -105 100
-100 8 2 42 -50 42 -65 0 -13 -27 3 -58 35 -20 21 -54 48 -74 61 -42 25 -113
115 -103 131 3 5 3 10 -2 10 -4 0 -16 14 -26 31 -14 25 -15 34 -5 46 9 11 9
16 -1 23 -10 6 -11 15 -4 36 12 33 2 68 -20 77 -11 4 -19 -4 -26 -24 -5 -16
-7 -29 -4 -29 4 0 4 -3 1 -6 -13 -13 -48 18 -48 42 0 17 -4 23 -12 18 -8 -5
-9 -2 -5 10 4 10 1 19 -8 22 -8 4 -15 12 -15 20 0 8 -7 14 -15 14 -18 0 -18
-5 -5 -30 7 -12 17 -17 28 -14 14 5 15 4 2 -5 -13 -9 -13 -14 -2 -33 8 -14 2
-10 -16 10 -27 30 -51 45 -37 22 4 -6 -5 -5 -20 2 -15 7 -34 29 -45 56 -25 56
-25 62 3 61 28 -1 116 16 125 25 4 4 15 -3 25 -16 10 -13 26 -32 35 -44z m208
10 c-4 -9 -9 -15 -11 -12 -3 3 -3 13 1 22 4 9 9 15 11 12 3 -3 3 -13 -1 -22z
m151 -46 c-3 -8 -6 -5 -6 6 -1 11 2 17 5 13 3 -3 4 -12 1 -19z m-247 -30 c0
-6 -6 -5 -15 2 -8 7 -15 14 -15 16 0 2 7 1 15 -2 8 -4 15 -11 15 -16z m-2990
-49 c0 -24 -4 -38 -10 -34 -17 10 -11 75 7 75 2 0 3 -18 3 -41z m367 -1 c-3
-8 -6 -5 -6 6 -1 11 2 17 5 13 3 -3 4 -12 1 -19z m2658 2 c10 -11 15 -20 11
-20 -14 0 -46 21 -46 30 0 16 16 11 35 -10z m45 -58 c0 11 14 17 46 22 64 8
76 8 69 -4 -3 -5 -2 -10 4 -10 5 0 12 4 15 8 4 6 93 9 144 3 19 -2 -33 -62
-72 -83 -17 -9 -50 -20 -73 -23 -23 -4 -44 -13 -47 -21 -7 -17 -36 -19 -36 -1
0 7 -8 17 -19 24 -10 6 -33 35 -51 65 -31 50 -31 52 -6 29 20 -19 26 -21 26
-9z m-2693 -34 c-3 -7 -5 -2 -5 12 0 14 2 19 5 13 2 -7 2 -19 0 -25z m-3 -127
c-10 -11 -18 14 -20 67 l-3 57 13 -60 c8 -33 12 -62 10 -64z m3127 6 c-8 -8
-11 -7 -11 4 0 20 13 34 18 19 3 -7 -1 -17 -7 -23z m-284 -49 c-15 -8 -57 0
-57 11 0 16 12 18 40 8 21 -8 26 -14 17 -19z m-307 -53 c15 9 12 -3 -7 -24
-14 -17 -18 -17 -30 -5 -8 7 -12 18 -9 22 3 5 -4 24 -15 43 l-20 34 36 -38
c20 -21 40 -35 45 -32z m230 45 c-6 -11 -15 -20 -20 -20 -6 0 -5 9 2 20 7 11
16 20 21 20 4 0 3 -9 -3 -20z m-2723 -4 c-3 -7 0 -19 6 -25 9 -9 8 -11 -5 -6
-20 8 -25 45 -7 45 6 0 9 -6 6 -14z m2491 -22 c-4 -3 -12 5 -18 18 -12 22 -12
22 6 6 10 -10 15 -20 12 -24z m293 -17 c-8 -8 -11 -7 -11 4 0 20 13 34 18 19
3 -7 -1 -17 -7 -23z m178 12 c34 -6 61 -14 61 -17 0 -3 -11 -20 -25 -38 -32
-41 -31 -44 5 -44 34 0 80 -19 80 -33 0 -5 -7 -7 -15 -3 -10 4 -15 -1 -15 -14
0 -11 -7 -20 -15 -20 -8 0 -15 7 -15 15 0 20 -64 24 -84 5 -4 -5 -24 0 -42 11
-43 24 -42 24 -46 -3 -3 -25 -28 -37 -28 -14 0 8 -9 31 -20 51 -23 42 -24 45
-7 45 6 1 28 19 47 41 19 21 40 37 46 35 7 -3 39 -10 73 -17z m-2935 -55 c3
-8 2 -12 -4 -9 -6 3 -10 10 -10 16 0 14 7 11 14 -7z m2513 -14 c1 -11 -3 -20
-8 -20 -6 0 -5 -9 2 -22 11 -21 11 -22 -4 -10 -12 11 -16 40 -8 70 3 11 17 -2
18 -18z m489 -7 c-10 -10 -19 5 -10 18 6 11 8 11 12 0 2 -7 1 -15 -2 -18z
m-2866 7 c0 -5 -4 -10 -10 -10 -5 0 -10 5 -10 10 0 6 5 10 10 10 6 0 10 -4 10
-10z m2920 1 c0 -12 -20 -25 -27 -18 -7 7 6 27 18 27 5 0 9 -4 9 -9z m-2934
-71 c3 -23 5 -24 14 -10 7 11 10 7 11 -20 3 -48 4 -53 12 -67 4 -6 4 -18 1
-27 -4 -10 -1 -16 9 -16 8 0 18 -6 20 -12 13 -31 6 22 -9 71 -8 29 -13 55 -10
58 3 3 7 0 10 -8 50 -170 54 -189 40 -189 -8 0 -14 9 -14 20 0 11 -4 20 -10
20 -5 0 -10 -6 -10 -12 0 -9 -3 -8 -10 2 -5 8 -12 11 -16 7 -4 -4 -18 8 -30
25 -17 23 -23 43 -22 72 2 23 -1 59 -5 81 -7 33 -6 38 5 27 7 -7 14 -17 14
-22z m3004 -78 c0 -5 -7 -9 -15 -9 -8 0 -12 4 -9 9 3 4 9 8 15 8 5 0 9 -4 9
-8z m-2738 -134 c43 -82 41 -78 30 -78 -9 0 -72 119 -72 135 0 16 14 -2 42
-57z m2903 -236 c-6 -6 -35 18 -35 29 0 5 9 1 20 -8 11 -9 17 -19 15 -21z
m-2730 -160 c30 -26 78 -93 71 -99 -3 -4 -6 -1 -6 6 0 7 -4 10 -9 7 -4 -3 -22
9 -38 28 -54 58 -66 100 -18 58z m2745 -202 c0 -5 -4 -10 -10 -10 -5 0 -10 5
-10 10 0 6 5 10 10 10 6 0 10 -4 10 -10z m-2412 -291 c-2 -6 -8 -10 -13 -10
-5 0 -11 4 -13 10 -2 6 4 11 13 11 9 0 15 -5 13 -11z m93 -56 c17 -45 4 -62
-14 -19 -20 45 -20 46 -7 46 6 0 15 -12 21 -27z m2229 -3 c-19 -13 -30 -13
-30 0 0 6 10 10 23 10 18 0 19 -2 7 -10z m-116 -282 c6 -4 7 -10 3 -15 -10 -9
-27 16 -26 37 1 13 1 13 6 0 3 -8 11 -18 17 -22z m300 23 c8 -12 -20 -22 -39
-15 -19 8 -9 24 15 24 10 0 21 -4 24 -9z m-1929 -311 c5 -34 4 -42 -5 -34 -6
6 -13 33 -15 60 -4 56 10 39 20 -26z m112 -23 c7 -4 13 -16 13 -25 0 -10 4
-22 9 -27 4 -6 11 -22 15 -37 10 -44 -12 -33 -24 11 -6 22 -24 54 -40 71 -18
19 -30 43 -30 59 0 26 1 25 22 -9 12 -19 28 -39 35 -43z m253 -849 c0 -21 -5
-38 -11 -38 -6 0 -8 9 -4 21 5 14 3 19 -3 15 -12 -7 -36 59 -27 74 13 21 45
-31 45 -72z m0 -85 c0 -22 -2 -25 -10 -13 -13 20 -13 40 0 40 6 0 10 -12 10
-27z m61 -246 c-8 -8 -11 -7 -11 4 0 20 13 34 18 19 3 -7 -1 -17 -7 -23z m19
-38 c0 -5 -4 -9 -10 -9 -5 0 -10 7 -10 16 0 8 5 12 10 9 6 -3 10 -10 10 -16z"/>
<path d="M1860 5985 c-10 -12 -10 -15 3 -15 8 0 17 7 21 15 3 8 2 15 -3 15 -5
0 -14 -7 -21 -15z"/>
<path d="M1812 5915 c-6 -14 -8 -25 -4 -25 12 0 32 23 32 37 0 22 -16 15 -28
-12z"/>
<path d="M1857 5903 c-4 -3 -7 -11 -7 -17 0 -6 5 -5 12 2 6 6 9 14 7 17 -3 3
-9 2 -12 -2z"/>
<path d="M1890 5891 c-7 -15 -7 -21 0 -21 12 0 25 28 17 36 -3 3 -10 -4 -17
-15z"/>
<path d="M1787 5853 c-4 -3 -7 -11 -7 -17 0 -6 5 -5 12 2 6 6 9 14 7 17 -3 3
-9 2 -12 -2z"/>
<path d="M1817 5854 c-4 -4 -7 -14 -7 -23 0 -11 3 -12 11 -4 6 6 10 16 7 23
-2 6 -7 8 -11 4z"/>
<path d="M1845 5820 c-3 -5 -3 -15 1 -21 6 -11 23 6 24 24 0 10 -18 9 -25 -3z"/>
<path d="M1887 5813 c-4 -3 -7 -16 -7 -27 0 -19 1 -19 17 -3 12 11 14 20 7 27
-6 6 -13 7 -17 3z"/>
<path d="M1781 5776 c-8 -9 -11 -19 -7 -23 9 -9 29 13 24 27 -2 8 -8 7 -17 -4z"/>
<path d="M1811 5762 c-15 -28 -14 -42 3 -36 19 7 26 27 16 44 -6 10 -11 8 -19
-8z"/>
<path d="M1925 5770 c-3 -5 -1 -10 4 -10 6 0 11 5 11 10 0 6 -2 10 -4 10 -3 0
-8 -4 -11 -10z"/>
<path d="M1965 5760 c-3 -5 -2 -10 4 -10 5 0 13 5 16 10 3 6 2 10 -4 10 -5 0
-13 -4 -16 -10z"/>
<path d="M1846 5731 c-4 -7 -5 -15 -2 -18 9 -9 19 4 14 18 -4 11 -6 11 -12 0z"/>
<path d="M1880 5714 c0 -8 5 -12 10 -9 6 3 10 10 10 16 0 5 -4 9 -10 9 -5 0
-10 -7 -10 -16z"/>
<path d="M1920 5684 c0 -8 5 -12 10 -9 6 3 10 10 10 16 0 5 -4 9 -10 9 -5 0
-10 -7 -10 -16z"/>
<path d="M1775 5680 c-3 -5 -2 -10 4 -10 5 0 13 5 16 10 3 6 2 10 -4 10 -5 0
-13 -4 -16 -10z"/>
<path d="M1811 5676 c-8 -10 -9 -16 -1 -21 5 -3 13 1 16 10 9 22 -1 29 -15 11z"/>
<path d="M1975 5660 c-3 -5 -1 -10 4 -10 6 0 11 5 11 10 0 6 -2 10 -4 10 -3 0
-8 -4 -11 -10z"/>
<path d="M1847 5654 c-4 -4 -7 -14 -7 -23 0 -11 3 -12 11 -4 6 6 10 16 7 23
-2 6 -7 8 -11 4z"/>
<path d="M1876 5624 c-9 -22 -8 -24 9 -24 8 0 15 9 15 20 0 24 -15 27 -24 4z"/>
<path d="M1777 5613 c-4 -3 -7 -16 -7 -27 1 -21 1 -21 15 -2 8 11 15 23 15 28
0 10 -14 11 -23 1z"/>
<path d="M1805 5579 c-8 -23 -1 -34 14 -24 13 8 15 45 2 45 -5 0 -13 -9 -16
-21z"/>
<path d="M1930 5589 c0 -5 5 -7 10 -4 6 3 10 8 10 11 0 2 -4 4 -10 4 -5 0 -10
-5 -10 -11z"/>
<path d="M1732 5535 c-9 -20 -9 -25 2 -25 18 0 39 27 31 40 -10 16 -21 12 -33
-15z"/>
<path d="M1880 5534 c0 -8 5 -12 10 -9 6 3 10 10 10 16 0 5 -4 9 -10 9 -5 0
-10 -7 -10 -16z"/>
<path d="M1770 5509 c0 -5 5 -7 10 -4 6 3 10 8 10 11 0 2 -4 4 -10 4 -5 0 -10
-5 -10 -11z"/>
<path d="M1800 5495 c0 -9 6 -12 15 -9 8 4 15 10 15 15 0 5 -7 9 -15 9 -8 0
-15 -7 -15 -15z"/>
<path d="M1846 5481 c-4 -7 -5 -15 -2 -18 9 -9 19 4 14 18 -4 11 -6 11 -12 0z"/>
<path d="M1734 5466 c-8 -22 3 -33 18 -18 9 9 9 15 0 24 -9 9 -13 7 -18 -6z"/>
<path d="M1887 5446 c-3 -8 -3 -17 0 -20 9 -9 34 15 27 25 -8 13 -21 11 -27
-5z"/>
<path d="M1773 5443 c-16 -6 -17 -33 -3 -33 11 0 26 28 19 34 -2 2 -10 1 -16
-1z"/>
<path d="M1801 5412 c-13 -25 2 -38 19 -16 9 10 10 18 3 25 -8 8 -14 5 -22 -9z"/>
<path d="M1800 5324 c0 -14 3 -14 15 -4 8 7 15 14 15 16 0 2 -7 4 -15 4 -8 0
-15 -7 -15 -16z"/>
<path d="M6470 4535 c0 -8 2 -15 4 -15 2 0 6 7 10 15 3 8 1 15 -4 15 -6 0 -10
-7 -10 -15z"/>
<path d="M7317 4333 c-7 -12 11 -53 23 -53 15 0 12 36 -4 49 -8 7 -16 8 -19 4z"/>
<path d="M4135 8531 c-3 -5 -1 -12 5 -16 5 -3 10 1 10 9 0 18 -6 21 -15 7z"/>
<path d="M3432 7500 c0 -14 3 -34 8 -45 l9 -20 -1 20 c0 11 -4 31 -8 45 l-8
25 0 -25z"/>
<path d="M2824 7320 c-22 -4 -57 -15 -76 -23 -26 -11 -39 -12 -47 -4 -6 6 -11
8 -11 4 0 -3 -11 -2 -25 3 -20 7 -25 6 -25 -5 0 -8 -8 -15 -17 -15 -17 -1 -17
-1 0 -11 23 -13 22 -25 -4 -32 -16 -4 -19 -9 -11 -24 19 -34 51 -61 82 -68 16
-4 30 -10 30 -15 0 -4 19 -6 42 -3 31 5 39 3 34 -6 -6 -9 1 -11 27 -6 21 4 37
3 41 -4 10 -15 36 -14 36 2 0 8 -11 20 -25 27 -21 11 -38 38 -17 28 122 -62
171 -81 207 -86 44 -4 45 -4 60 31 8 20 15 48 15 62 0 43 34 31 86 -32 25 -32
49 -65 52 -73 9 -22 41 -55 47 -48 4 3 -10 36 -29 73 -20 37 -36 74 -36 83 0
24 -97 91 -172 119 -70 27 -196 38 -264 23z m209 -100 c5 -18 -14 -45 -25 -35
-7 8 3 55 12 55 4 0 10 -9 13 -20z m32 -60 c-11 -17 -23 -1 -18 21 5 19 7 19
15 5 5 -9 6 -21 3 -26z"/>
<path d="M3256 7061 c-4 -7 -5 -15 -2 -18 9 -9 19 4 14 18 -4 11 -6 11 -12 0z"/>
<path d="M2384 6769 c-3 -6 -1 -16 5 -22 8 -8 11 -5 11 11 0 24 -5 28 -16 11z"/>
<path d="M3140 6350 c0 -5 5 -10 10 -10 6 0 10 5 10 10 0 6 -4 10 -10 10 -5 0
-10 -4 -10 -10z"/>
<path d="M3318 6273 c-29 -7 -21 -16 43 -48 61 -30 66 -32 107 -34 12 0 22 -7
22 -15 0 -18 30 -30 43 -17 12 12 -50 72 -96 94 -37 18 -94 27 -119 20z"/>
<path d="M4232 6260 c0 -14 2 -19 5 -12 2 6 2 18 0 25 -3 6 -5 1 -5 -13z"/>
<path d="M3210 6230 c13 -11 27 -20 31 -20 4 0 14 -3 23 -6 35 -13 13 12 -24
29 -52 22 -58 22 -30 -3z"/>
<path d="M3783 6168 c-37 -18 -27 -30 17 -23 33 6 40 4 40 -9 0 -11 -9 -16
-28 -16 -15 0 -33 -5 -39 -11 -16 -16 -35 -1 -28 22 5 14 2 17 -8 13 -25 -9
-27 -43 -4 -59 11 -8 24 -12 29 -9 5 3 14 1 21 -4 7 -5 31 -13 55 -17 35 -6
42 -4 42 9 0 9 12 22 28 28 l27 12 -40 5 c-34 5 -40 9 -37 29 2 16 -4 25 -23
32 -14 6 -27 10 -28 9 -1 0 -12 -5 -24 -11z"/>
<path d="M2750 6025 c-10 -13 -8 -22 16 -56 16 -22 37 -54 48 -72 10 -18 36
-50 57 -71 38 -39 50 -66 29 -66 -7 0 -7 -6 0 -20 8 -15 7 -26 -6 -45 -16 -24
-16 -28 2 -60 10 -18 26 -36 37 -39 10 -2 21 -14 24 -25 3 -12 9 -21 13 -21 4
0 25 -16 46 -35 22 -19 46 -35 55 -35 9 0 24 -9 34 -20 13 -14 31 -20 62 -20
47 0 57 15 18 30 -13 5 -30 18 -37 30 -7 11 -18 20 -25 20 -8 0 -13 14 -13 36
0 35 1 36 28 29 15 -4 41 -8 59 -9 18 -1 38 -7 45 -14 6 -6 22 -12 34 -12 12
0 27 -7 34 -15 7 -8 19 -15 26 -15 8 0 14 -4 14 -8 0 -4 8 -9 18 -10 9 -1 29
-3 44 -5 28 -3 43 -12 43 -25 0 -4 13 -20 28 -36 31 -33 31 -48 -2 -56 -32 -7
-31 -22 4 -40 45 -22 161 -16 224 11 75 32 181 159 202 243 6 25 15 46 20 46
4 0 11 10 14 21 7 22 77 96 107 114 12 7 15 18 11 37 -5 24 -9 26 -56 26 -51
-1 -114 13 -172 38 -49 20 -95 27 -180 25 -74 -2 -82 -4 -102 -29 -11 -15 -18
-31 -15 -37 3 -5 -2 -4 -11 4 -15 12 -17 12 -12 -1 6 -16 2 -17 -85 -19 l-55
-1 40 -16 c22 -9 42 -18 45 -21 3 -3 34 -6 69 -6 54 -1 66 -4 82 -23 17 -22
19 -22 48 -7 29 14 32 14 50 -4 18 -18 19 -18 41 3 16 15 24 17 27 8 3 -6 9
-9 15 -6 19 12 2 -86 -19 -114 -34 -46 -69 -65 -120 -66 -26 0 -51 -5 -55 -10
-10 -15 -127 -14 -173 1 -22 7 -54 13 -71 13 -17 0 -37 7 -44 15 -7 8 -23 15
-37 15 -33 0 -83 27 -83 46 0 9 -7 14 -17 13 -10 -2 -31 0 -47 4 -22 6 -27 12
-23 27 4 16 0 20 -18 20 -13 0 -27 -4 -30 -10 -4 -6 -17 -4 -36 5 -27 14 -29
19 -23 51 6 34 5 35 -19 29 -50 -13 -64 0 -63 55 2 42 -1 50 -16 50 -11 0 -18
7 -18 20 0 11 4 20 10 20 5 0 7 -6 4 -13 -7 -18 35 -19 53 -1 21 20 32 18 45
-11 13 -29 26 -32 43 -9 10 14 17 15 48 5 21 -7 42 -22 48 -32 8 -16 13 -18
25 -9 16 14 61 5 86 -17 10 -9 41 -18 70 -21 l53 -4 -34 31 c-19 17 -40 30
-46 29 -6 -2 -11 2 -12 7 -1 6 7 9 17 7 27 -4 25 15 -2 24 -13 4 -34 15 -48
25 -43 32 -149 60 -295 80 -171 23 -179 23 -195 4z m615 -485 c3 -5 1 -10 -4
-10 -6 0 -11 5 -11 10 0 6 2 10 4 10 3 0 8 -4 11 -10z"/>
<path d="M2870 5710 c0 -5 5 -10 10 -10 6 0 10 5 10 10 0 6 -4 10 -10 10 -5 0
-10 -4 -10 -10z"/>
<path d="M7283 5438 c-4 -7 -14 -24 -20 -37 -11 -20 -11 -22 3 -17 9 3 19 6
23 6 7 0 31 43 31 55 0 11 -29 4 -37 -7z"/>
<path d="M7585 5420 c-3 -5 -1 -10 4 -10 6 0 11 5 11 10 0 6 -2 10 -4 10 -3 0
-8 -4 -11 -10z"/>
<path d="M7100 5344 c0 -10 7 -14 22 -12 32 5 35 28 4 28 -17 0 -26 -5 -26
-16z"/>
<path d="M7245 5349 c-10 -15 3 -25 16 -12 7 7 7 13 1 17 -6 3 -14 1 -17 -5z"/>
<path d="M7327 5347 c-3 -9 -13 -14 -20 -11 -15 5 -27 -21 -20 -43 7 -20 23
-15 23 7 0 10 7 23 16 28 9 5 15 15 12 23 -3 10 -6 9 -11 -4z"/>
<path d="M7045 5340 c-3 -5 -2 -10 4 -10 5 0 13 5 16 10 3 6 2 10 -4 10 -5 0
-13 -4 -16 -10z"/>
<path d="M7490 5255 c0 -8 4 -15 9 -15 5 0 17 -3 26 -7 16 -5 15 -4 -1 15 -22
26 -34 28 -34 7z"/>
<path d="M7108 5253 c7 -3 16 -2 19 1 4 3 -2 6 -13 5 -11 0 -14 -3 -6 -6z"/>
<path d="M7309 5231 c7 -5 10 -14 7 -20 -8 -13 3 -14 23 -2 18 12 5 31 -22 31
-16 0 -19 -3 -8 -9z"/>
<path d="M7494 5191 c-11 -9 -27 -20 -36 -24 -17 -6 -26 -47 -10 -47 4 0 18
-3 31 -7 17 -4 22 -3 17 6 -4 6 -12 9 -17 6 -5 -4 -9 1 -9 10 0 12 6 15 20 10
25 -8 50 10 50 35 0 26 -25 31 -46 11z"/>
<path d="M7135 5190 c-3 -5 -1 -10 4 -10 6 0 11 5 11 10 0 6 -2 10 -4 10 -3 0
-8 -4 -11 -10z"/>
<path d="M7354 5189 c-3 -6 -20 -9 -36 -7 -16 3 -31 1 -34 -4 -3 -4 -13 -4
-22 1 -24 13 -73 -26 -51 -40 7 -5 19 -9 26 -9 7 0 16 -8 22 -17 8 -14 11 -15
25 -4 9 8 18 12 20 10 11 -13 73 -117 78 -130 8 -22 88 -25 88 -3 0 8 -4 14
-10 14 -15 0 -50 38 -50 55 0 7 8 18 18 24 15 9 14 13 -14 39 -17 15 -37 26
-44 24 -9 -3 -11 1 -7 12 4 9 10 23 13 31 7 17 -11 21 -22 4z"/>
<path d="M6260 5160 c0 -5 5 -10 10 -10 6 0 10 5 10 10 0 6 -4 10 -10 10 -5 0
-10 -4 -10 -10z"/>
<path d="M7250 5079 c0 -5 5 -7 10 -4 6 3 10 8 10 11 0 2 -4 4 -10 4 -5 0 -10
-5 -10 -11z"/>
<path d="M7205 5060 c3 -5 11 -10 16 -10 6 0 7 5 4 10 -3 6 -11 10 -16 10 -6
0 -7 -4 -4 -10z"/>
<path d="M7270 5050 c0 -5 5 -10 10 -10 6 0 10 5 10 10 0 6 -4 10 -10 10 -5 0
-10 -4 -10 -10z"/>
<path d="M7175 5018 c-9 -14 -11 -24 -5 -26 5 -2 10 -12 10 -23 0 -22 18 -26
26 -5 3 8 15 14 27 15 40 1 53 4 65 18 10 10 9 13 -5 13 -10 0 -29 8 -42 17
-23 16 -24 16 -19 -5 5 -18 2 -22 -19 -22 -20 0 -23 4 -18 20 8 26 0 25 -20
-2z"/>
<path d="M7307 4963 c-12 -11 7 -33 28 -33 22 0 42 16 33 25 -7 7 -56 13 -61
8z"/>
<path d="M7590 4952 c0 -10 -6 -24 -12 -31 -11 -10 -9 -12 7 -11 20 2 65 -9
65 -16 0 -2 -5 -13 -12 -24 -18 -29 -1 -37 23 -11 18 19 20 27 10 47 -6 13
-17 24 -24 24 -7 0 -23 9 -35 20 -21 20 -22 20 -22 2z"/>
<path d="M7200 4940 c0 -5 5 -10 10 -10 6 0 10 5 10 10 0 6 -4 10 -10 10 -5 0
-10 -4 -10 -10z"/>
<path d="M6520 4855 c0 -8 5 -15 10 -15 6 0 10 7 10 15 0 8 -4 15 -10 15 -5 0
-10 -7 -10 -15z"/>
<path d="M7437 4813 c10 -27 31 -45 38 -33 3 6 -1 13 -9 16 -9 3 -16 12 -16
20 0 8 -4 14 -10 14 -5 0 -6 -8 -3 -17z"/>
<path d="M7495 4796 c-3 -14 -7 -37 -10 -50 -3 -15 0 -26 10 -30 20 -7 24 2
21 51 -2 51 -13 65 -21 29z"/>
<path d="M7377 4776 c-7 -17 16 -39 35 -34 9 2 7 10 -8 26 -17 18 -23 20 -27
8z"/>
<path d="M7600 4760 c0 -5 5 -10 10 -10 6 0 10 5 10 10 0 6 -4 10 -10 10 -5 0
-10 -4 -10 -10z"/>
<path d="M7635 4739 c-6 -17 -12 -20 -37 -15 -18 3 -27 2 -23 -4 3 -6 -1 -10
-9 -10 -9 0 -16 -4 -16 -10 0 -5 11 -10 24 -10 13 0 35 -9 49 -20 l25 -20 16
25 c19 29 21 44 4 27 -28 -28 -34 -10 -13 41 4 10 3 17 -3 17 -6 0 -14 -9 -17
-21z"/>
<path d="M1467 4693 c-13 -12 -7 -33 8 -33 8 0 15 9 15 20 0 20 -11 26 -23 13z"/>
<path d="M7312 4679 c2 -6 8 -10 13 -10 5 0 11 4 13 10 2 6 -4 11 -13 11 -9 0
-15 -5 -13 -11z"/>
<path d="M1040 4667 c-29 -14 -40 -47 -16 -47 9 0 16 -6 16 -12 0 -9 4 -8 10
2 14 22 12 30 -6 30 -12 0 -11 5 7 20 28 22 24 25 -11 7z"/>
<path d="M1087 4631 c12 -13 26 -19 36 -15 20 7 23 24 5 24 -7 0 -24 3 -37 7
l-25 6 21 -22z"/>
<path d="M1178 4643 c7 -3 16 -2 19 1 4 3 -2 6 -13 5 -11 0 -14 -3 -6 -6z"/>
<path d="M7580 4639 c0 -5 5 -7 10 -4 6 3 10 8 10 11 0 2 -4 4 -10 4 -5 0 -10
-5 -10 -11z"/>
<path d="M7361 4624 c0 -11 3 -14 6 -6 3 7 2 16 -1 19 -3 4 -6 -2 -5 -13z"/>
<path d="M7540 4616 c0 -8 5 -18 10 -21 6 -3 10 3 10 14 0 12 -4 21 -10 21 -5
0 -10 -6 -10 -14z"/>
<path d="M7071 4584 c0 -11 3 -14 6 -6 3 7 2 16 -1 19 -3 4 -6 -2 -5 -13z"/>
<path d="M7286 4591 c-4 -7 -5 -15 -2 -18 9 -9 19 4 14 18 -4 11 -6 11 -12 0z"/>
<path d="M7662 4578 c-7 -7 -12 -17 -12 -24 0 -6 -10 -18 -22 -27 -13 -8 -20
-18 -16 -22 12 -12 67 39 67 63 1 25 -1 26 -17 10z"/>
<path d="M1690 4501 c-8 -5 -42 -11 -74 -15 -44 -4 -72 -15 -112 -41 -29 -19
-55 -35 -58 -35 -17 0 -248 -118 -281 -143 -34 -27 -285 -277 -277 -277 18 0
85 39 133 76 32 26 62 45 65 42 10 -10 129 54 161 87 17 18 34 31 36 28 8 -8
68 27 74 43 4 12 12 10 44 -8 21 -12 39 -26 40 -32 1 -6 5 4 9 23 6 27 4 38
-11 55 -13 13 -16 22 -8 25 6 2 14 -1 18 -7 9 -14 71 -26 71 -13 0 6 -4 11
-10 11 -12 0 -50 37 -50 48 0 14 35 42 53 42 11 0 15 -8 14 -27 -2 -31 29 -45
47 -21 6 8 19 17 29 21 14 5 16 11 8 25 -8 14 -6 24 5 38 14 18 15 18 30 -3
21 -29 34 -29 34 0 0 17 9 26 35 36 19 7 33 17 30 22 -8 11 -35 11 -55 0z"/>
<path d="M7655 4480 c-3 -5 1 -10 9 -10 9 0 16 5 16 10 0 6 -4 10 -9 10 -6 0
-13 -4 -16 -10z"/>
<path d="M1807 4453 c-4 -3 -7 -11 -7 -17 0 -6 5 -5 12 2 6 6 9 14 7 17 -3 3
-9 2 -12 -2z"/>
<path d="M760 4389 c0 -5 5 -7 10 -4 6 3 10 8 10 11 0 2 -4 4 -10 4 -5 0 -10
-5 -10 -11z"/>
<path d="M776 4304 c-5 -14 -4 -15 9 -4 17 14 19 20 6 20 -5 0 -12 -7 -15 -16z"/>
<path d="M832 4191 c-21 -15 -23 -23 -17 -63 9 -57 20 -77 35 -62 9 9 9 14 1
18 -15 9 -14 93 1 98 6 2 9 9 7 16 -3 7 -12 5 -27 -7z"/>
<path d="M1915 4132 c3 -7 5 -16 5 -18 0 -9 27 -3 45 10 17 12 16 14 -18 18
-29 3 -36 1 -32 -10z"/>
<path d="M1974 4061 c12 -11 19 -13 24 -5 4 7 16 14 27 16 11 3 0 5 -23 5 -41
1 -43 -1 -28 -16z"/>
<path d="M2149 4062 c6 -11 26 -31 43 -43 18 -12 38 -27 43 -33 6 -6 35 -31
65 -56 30 -24 57 -48 58 -52 2 -5 13 -13 25 -20 19 -10 20 -9 10 3 -7 8 -10
24 -7 36 5 17 -1 23 -30 33 -20 6 -36 16 -36 21 0 5 -7 9 -15 9 -8 0 -15 4
-15 9 0 5 -11 12 -25 15 -16 4 -25 13 -25 27 0 12 -4 17 -11 14 -6 -4 -29 7
-51 25 -30 25 -37 28 -29 12z m221 -152 c0 -5 -2 -10 -4 -10 -3 0 -8 5 -11 10
-3 6 -1 10 4 10 6 0 11 -4 11 -10z"/>
<path d="M4570 3059 c0 -8 7 -24 15 -35 11 -15 14 -16 15 -3 0 8 -7 24 -15 35
-11 15 -14 16 -15 3z"/>
<path d="M4530 2996 c0 -9 5 -16 10 -16 6 0 10 4 10 9 0 6 -4 13 -10 16 -5 3
-10 -1 -10 -9z"/>
<path d="M4570 2970 c0 -5 5 -10 11 -10 5 0 7 5 4 10 -3 6 -8 10 -11 10 -2 0
-4 -4 -4 -10z"/>
<path d="M4610 2956 c0 -16 18 -31 27 -22 3 3 -2 12 -11 21 -14 14 -16 14 -16
1z"/>
<path d="M4630 2911 c0 -5 5 -13 10 -16 6 -3 10 -2 10 4 0 5 -4 13 -10 16 -5
3 -10 2 -10 -4z"/>
<path d="M4540 2860 c0 -5 5 -10 11 -10 5 0 7 5 4 10 -3 6 -8 10 -11 10 -2 0
-4 -4 -4 -10z"/>
<path d="M5271 2054 c0 -11 3 -14 6 -6 3 7 2 16 -1 19 -3 4 -6 -2 -5 -13z"/>
<path d="M5232 1985 c0 -16 2 -22 5 -12 2 9 2 23 0 30 -3 6 -5 -1 -5 -18z"/>
<path d="M3300 1928 c0 -9 5 -20 10 -23 13 -8 13 5 0 25 -8 13 -10 13 -10 -2z"/>
<path d="M3326 1877 c3 -10 9 -15 12 -12 3 3 0 11 -7 18 -10 9 -11 8 -5 -6z"/>
<path d="M3637 1883 c-4 -3 -4 -30 0 -60 5 -46 3 -59 -16 -83 -22 -30 -28 -60
-12 -60 5 0 5 -15 1 -36 -5 -19 -5 -47 -1 -62 4 -15 7 -74 5 -132 -2 -103 -1
-107 33 -175 20 -38 39 -72 42 -75 3 -3 19 -25 36 -50 48 -73 117 -161 166
-215 26 -27 76 -87 111 -131 74 -94 138 -167 143 -162 2 2 0 40 -4 85 -3 45
-3 121 1 170 5 48 12 138 18 198 9 107 39 225 55 215 4 -3 10 78 12 180 5 179
6 186 29 211 l24 25 -25 14 c-22 12 -27 11 -45 -5 -24 -21 -41 -11 -61 37
l-13 31 -12 -42 c-20 -69 -8 -142 30 -172 18 -15 21 -28 21 -101 0 -100 -11
-199 -23 -207 -5 -3 -20 -31 -34 -62 -19 -42 -32 -58 -52 -63 -14 -3 -26 -13
-26 -21 0 -8 -9 -15 -19 -15 -11 0 -21 -6 -24 -12 -2 -7 -2 11 1 40 4 47 3 52
-16 52 -24 0 -44 23 -37 42 4 9 0 22 -7 29 -7 8 -19 27 -26 42 -6 15 -16 26
-21 23 -13 -9 -20 16 -10 36 12 22 2 45 -22 51 -15 4 -19 14 -19 51 0 25 -4
46 -9 46 -13 0 -24 56 -22 111 1 40 -2 47 -24 57 -19 9 -25 19 -25 45 0 25 -9
42 -35 67 -19 18 -32 37 -29 42 3 5 -4 18 -17 29 -24 20 -32 23 -42 12z"/>
<path d="M4217 1883 c-4 -3 -7 -11 -7 -17 0 -6 5 -5 12 2 6 6 9 14 7 17 -3 3
-9 2 -12 -2z"/>
<path d="M5450 1797 c0 -8 6 -20 14 -26 12 -10 13 -8 9 9 -7 25 -23 37 -23 17z"/>
<path d="M7601 1738 c-1 -9 -4 -25 -7 -35 -5 -15 -4 -16 5 -3 7 9 14 11 19 5
9 -13 42 -16 42 -4 0 5 -6 9 -14 9 -7 0 -21 10 -29 23 -13 17 -16 19 -16 5z"/>
<path d="M7537 1733 c-12 -12 -7 -33 8 -33 17 0 19 9 7 28 -5 7 -11 9 -15 5z"/>
<path d="M7618 1673 c7 -3 16 -2 19 1 4 3 -2 6 -13 5 -11 0 -14 -3 -6 -6z"/>
<path d="M7527 1629 c-24 -14 -21 -38 6 -48 25 -10 37 2 30 30 -7 25 -15 29
-36 18z"/>
<path d="M7467 1595 c3 -16 14 -48 24 -70 11 -22 20 -52 21 -67 1 -16 6 -28
11 -28 5 0 7 -11 5 -25 -3 -13 -2 -22 3 -19 4 2 12 -4 18 -13 24 -41 10 29
-16 85 -15 31 -26 66 -25 77 0 10 -4 25 -9 32 -6 6 -7 22 -3 35 6 20 5 21 -9
10 -12 -10 -16 -10 -21 0 -3 7 -2 0 1 -17z"/>
<path d="M7581 1613 c-1 -19 15 -24 41 -13 22 10 22 10 -4 7 -15 -2 -29 1 -32
7 -3 7 -5 7 -5 -1z"/>
<path d="M128 718 c-9 -56 0 -199 13 -213 10 -10 10 65 0 185 -6 75 -6 75 -13
28z"/>
<path d="M5950 549 c0 -16 4 -28 9 -25 8 5 3 56 -5 56 -2 0 -4 -14 -4 -31z"/>
<path d="M7450 471 c0 -11 4 -22 9 -25 5 -3 8 5 7 19 -1 29 -16 34 -16 6z"/>
<path d="M6044 400 c3 -19 10 -71 16 -114 11 -87 24 -120 15 -40 -10 91 -24
176 -30 183 -4 3 -4 -10 -1 -29z"/>
<path d="M0 323 c0 -11 7 -37 15 -57 8 -20 13 -36 10 -36 -3 0 -1 -8 4 -18 9
-17 19 -106 20 -179 1 -31 3 -33 40 -33 l38 0 7 61 c10 99 7 227 -5 235 -22
13 -29 -22 -23 -103 6 -76 -1 -181 -12 -170 -2 2 -11 39 -19 81 -13 67 -60
223 -71 235 -2 2 -4 -5 -4 -16z"/>
<path d="M6151 119 c-1 -34 3 -46 14 -46 8 0 11 5 8 11 -4 6 -10 26 -14 46 -7
35 -7 34 -8 -11z"/>
<path d="M6160 36 c0 -14 4 -27 8 -30 5 -3 6 8 4 25 -5 35 -12 38 -12 5z"/>
</g>
</svg>
